# xmcd
#
# Track frame offsets:
#        150
#        11365
#        24786
#        37247
#        50298
#        67311
#        82135
#        93560
#        106598
#        117907
#        131256
#        143539
#        156611
#        173547
#        188303
#        199698
#
# Disc length: 2838 seconds
#
# Revision: 0
# Processed by: cddbd v1.5.2PL0 Copyright (c) Steve Scherf et al.
# Submitted via: CDGFix 3.8d
#
DISCID=c90b1410
DTITLE=Various Artist - SC2002
DYEAR=1900
DGENRE=Karaoke
TTITLE0=Patsy Cline - Blue Moon Of Kentucky
TTITLE1=Patsy Cline - I Fall To Pieces
TTITLE2=Patsy Cline - Sweet Dreams
TTITLE3=Patsy Cline - Crazy
TTITLE4=Patsy Cline - Faded Love
TTITLE5=Patsy Cline - She's Got You
TTITLE6=Patsy Cline - Leavin' On Your Mind
TTITLE7=Patsy Cline - Walkin' After Midnight
TTITLE8=Patsy Cline - Blue Moon Of Kentucky (Vocals)
TTITLE9=Patsy Cline - I Fall To Pieces (Vocals)
TTITLE10=Patsy Cline - Sweet Dreams (Vocals)
TTITLE11=Patsy Cline - Crazy (Vocals)
TTITLE12=Patsy Cline - Faded Love (Vocals)
TTITLE13=Patsy Cline - She's Got You (Vocals)
TTITLE14=Patsy Cline - Leavin' On Your Mind (Vocals)
TTITLE15=Patsy Cline - Walkin' After Midnight (Vocals)
EXTD=
EXTT0=
EXTT1=
EXTT2=
EXTT3=
EXTT4=
EXTT5=
EXTT6=
EXTT7=
EXTT8=
EXTT9=
EXTT10=
EXTT11=
EXTT12=
EXTT13=
EXTT14=
EXTT15=
PLAYORDER=
